<?xml version="1.0" encoding="UTF-8"?>
<!DOCTYPE svg PUBLIC "-//W3C//DTD SVG 1.1//EN" "http://www.w3.org/Graphics/SVG/1.1/DTD/svg11.dtd">
<!-- Creator: CorelDRAW 2020 (64-Bit) -->
<svg xmlns="http://www.w3.org/2000/svg" xml:space="preserve" width="165.704mm" height="82.2451mm" version="1.1" style="shape-rendering:geometricPrecision; text-rendering:geometricPrecision; image-rendering:optimizeQuality; fill-rule:evenodd; clip-rule:evenodd"
viewBox="0 0 15398.63 7642.9"
 xmlns:xlink="http://www.w3.org/1999/xlink"
 xmlns:xodm="http://www.corel.com/coreldraw/odm/2003">
 <defs>
  <style type="text/css">
   <![CDATA[
    .str0 {stroke:#FFE1A3;stroke-width:92.93;stroke-linecap:round;stroke-linejoin:round;stroke-miterlimit:22.9256}
    .fil1 {fill:none}
    .fil3 {fill:none;fill-rule:nonzero}
    .fil2 {fill:#390F4E}
    .fil4 {fill:#390F4E;fill-rule:nonzero}
    .fil0 {fill:#FFE1A3;fill-rule:nonzero}
   ]]>
  </style>
 </defs>
 <g id="Слой_x0020_1">
  <metadata id="CorelCorpID_0Corel-Layer"/>
  <g id="_1844859660672">
   <path class="fil0" d="M6080.07 2804.23c-82.51,47.07 -150.65,86.59 -183.42,105.12 -222.12,125.5 -473.68,316.3 -673.04,508.63 -211.11,203.68 -414.16,379.99 -589.5,647.37 -299.5,456.71 -254.17,663.85 323.9,787.6 55.49,129.47 15.62,249.48 128.5,385.42 128.12,154.31 318.33,130.98 411.89,111.02 399.01,-85.12 526.67,-459.06 787.16,-536.62l103.28 98.66c-166.99,127.77 263.14,45.01 -12.07,246.2 -243.3,177.9 -621.64,462.2 -773.19,794.66 -192.57,422.28 172.46,967.99 745.71,657.25 321.41,-174.31 88.54,-106.25 437.65,-238.45l43.7 267.48c-144.57,128.42 -465.26,355.36 -367.08,646.21 188.52,558.51 431.16,331.27 597.7,194.55l576.79 -432.8 -86.65 -81.13c220.7,-251.32 1505.88,-870.19 1996.02,-1114.72l1284.47 -610.27c89.77,-27.13 140.51,-55.34 217.68,-91.26 176.59,-82.17 378.22,-132.09 485.51,-317.91 88.77,-153.63 128.17,-482.91 28.73,-610.6 -126.57,-51.62 -315.68,1.5 -416.92,20.97 -140.1,26.87 -853.62,165.49 -925,142.13 -2.22,5.56 -4.52,11.04 -6.88,16.47l-48.96 -7.31c14.18,-24.15 26.87,-49.77 37.77,-77.09l312.32 -433.1c209.1,-123.63 709.57,-389.17 500.34,-771.73 -154.73,-282.94 -237.79,-274.73 -519.68,-334.28 141.78,-202.78 572.82,-130.51 611.46,-557.69 10.83,-119.7 -20.61,-266.6 -117.75,-339.07 -302.1,-225.36 -1087.26,17.53 -1249.45,11.53 96.63,-100.04 193.96,-128.78 345.85,-144.86 130.98,-13.9 262.17,-51.14 332.53,-167.7 74.3,-123.14 66.23,-355.61 -33.54,-457.98 -133.3,-136.73 -366.4,-95.19 -473.36,-92.07 -478,13.97 -1165.17,89.4 -1837.79,196.79 519.92,220.31 884.63,735.31 884.63,1335.53 0,800.74 -649.11,1449.85 -1449.85,1449.85 -717.9,0 -1313.81,-521.79 -1429.45,-1206.79zm366.82 -1229.28c-38.59,11.78 -75.79,23.61 -111.21,35.46 -128.02,42.79 -251.73,84.04 -379.99,113.61 -74.28,17.11 -92.35,31.58 -169.95,63.02 -61.17,24.82 -125.04,33.45 -191.49,55.96 -67.62,22.94 -120.7,35.77 -186.51,62.55 -74.52,30.33 -112.31,61.73 -199.28,62.71 105.72,-100.53 566.03,-336.14 720.18,-423.94l938.1 -466.75c73.42,-29.24 127.22,-36.57 198.01,-69.63 67.61,-31.6 120.19,-52.92 195.52,-76.41 246.68,-76.81 696.85,-276.28 1079.92,-257.33 159.02,7.88 353.05,260.91 542.77,158.16 177.77,-96.34 130.61,-302.66 19.66,-474.84 -269.4,-418.03 -651.86,-368.97 -955.29,-337.64 -884.49,91.37 -1716.82,423.78 -2420.77,826.18 -527.41,301.43 -1822.59,1078.49 -1826.84,1817.16 -0.96,166.96 72.2,355.43 216.19,488.91 303.36,281.12 703.27,-67.72 1052.95,-214.56l774.33 -337.13c106.65,-48.02 214.11,-89.25 319.02,-124.3 20.09,-347.34 162.43,-661.85 384.67,-901.21z"/>
   <g>
    <path class="fil1 str0" d="M6881.4 2180.96l-36.05 135.99c-19.23,151.01 14.69,283.05 64.77,392.03 26.2,56.99 59.23,108.32 89.37,153.44 33.35,49.93 72,79.79 101.42,135.54l24.31 32.77c57.9,69.18 125.17,199.26 157.92,302.55 16.18,51.05 31.76,137.81 -5.72,189.32 -31.93,43.86 -148.58,1.64 -121.34,102.78l38.23 18.14c58.65,12.91 111,17.69 166.55,14.7 56.51,-3.07 120.56,-22 136.64,-8.26 -64.46,36 -358.87,43.55 -292.85,171.19 81.13,42.16 288.13,-35.81 331.1,-3.63 -69.52,42.34 -225.85,41.71 -266.05,108.99l33.7 19.64c54.48,12.68 287.35,60.88 327.92,-4.93 -22.16,-35.87 -41.4,-26.46 -88.59,-40.2 55.45,-78.09 167.08,-37.87 159.91,-119.58 -16.27,-21.73 -16.3,-18.29 -41.51,-28.03l-62.19 -23.6c11.82,-19.46 -1.32,-5.67 19.06,-18.34 3.8,-2.36 17.55,-7.43 23.46,-9.75 19.48,-7.68 35.24,-16.72 52.4,-25.29l17.75 20.04c7.52,9.1 10.66,14.28 19.3,23.86 47.67,52.81 127.84,57.18 155.07,8.68 -16.89,-24.02 -57.4,-39.39 -111.41,-89.87 -42.5,-39.71 -59.07,-65.53 -81.09,-121.81 -31.58,-77.26 -16.61,-202.15 4.66,-301.58 21,-98.17 59.07,-173.02 111.29,-240.02 85.5,-109.65 263.66,-202.35 312.58,-372.17 21.13,-34.01 27.55,-108.87 32.76,-156.1 16.22,-276.58 -88.49,-454.38 -316.41,-542.49 38.55,-21.85 54.86,-12.77 72.64,-50.1 -16.39,-42.62 -82.56,-65.87 -126.75,-82.1 -267.02,-98.17 -544.36,-22.09 -731.69,170.52 -141.46,145.44 -88.5,107.68 -171.16,237.67zm503.92 1342.04c263.04,-22.91 199.9,42.3 243.64,57.82 10.93,-20.09 5.02,-44.23 1.62,-67.52 -3.97,-27.2 -7.13,-52.54 -9.89,-77.22 -52.64,-469.41 248.55,-559.94 384.84,-896.44 126.07,-311.27 -122.01,-629.08 -421.34,-585.34 -38.31,5.59 -107.61,26.54 -139.58,10.8 -57.15,-28.13 -20.23,-84.56 4.3,-114.01 -86.58,-4.89 -175.15,55.47 -229.76,88.78 -60.63,37 -124.45,101.46 -175.05,168.67 -257.14,341.61 -10.62,573.92 192.59,929.03 147.36,257.5 200.84,267.01 148.61,485.43z"/>
    <path id="1" class="fil2" d="M6881.4 2180.96l-36.05 135.99c-19.23,151.01 14.69,283.05 64.77,392.03 26.2,56.99 59.23,108.32 89.37,153.44 33.35,49.93 72,79.79 101.42,135.54l24.31 32.77c57.9,69.18 125.17,199.26 157.92,302.55 16.18,51.05 31.76,137.81 -5.72,189.32 -31.93,43.86 -148.58,1.64 -121.34,102.78l38.23 18.14c58.65,12.91 111,17.69 166.55,14.7 56.51,-3.07 120.56,-22 136.64,-8.26 -64.46,36 -358.87,43.55 -292.85,171.19 81.13,42.16 288.13,-35.81 331.1,-3.63 -69.52,42.34 -225.85,41.71 -266.05,108.99l33.7 19.64c54.48,12.68 287.35,60.88 327.92,-4.93 -22.16,-35.87 -41.4,-26.46 -88.59,-40.2 55.45,-78.09 167.08,-37.87 159.91,-119.58 -16.27,-21.73 -16.3,-18.29 -41.51,-28.03l-62.19 -23.6c11.82,-19.46 -1.32,-5.67 19.06,-18.34 3.8,-2.36 17.55,-7.43 23.46,-9.75 19.48,-7.68 35.24,-16.72 52.4,-25.29l17.75 20.04c7.52,9.1 10.66,14.28 19.3,23.86 47.67,52.81 127.84,57.18 155.07,8.68 -16.89,-24.02 -57.4,-39.39 -111.41,-89.87 -42.5,-39.71 -59.07,-65.53 -81.09,-121.81 -31.58,-77.26 -16.61,-202.15 4.66,-301.58 21,-98.17 59.07,-173.02 111.29,-240.02 85.5,-109.65 263.66,-202.35 312.58,-372.17 21.13,-34.01 27.55,-108.87 32.76,-156.1 16.22,-276.58 -88.49,-454.38 -316.41,-542.49 38.55,-21.85 54.86,-12.77 72.64,-50.1 -16.39,-42.62 -82.56,-65.87 -126.75,-82.1 -267.02,-98.17 -544.36,-22.09 -731.69,170.52 -141.46,145.44 -88.5,107.68 -171.16,237.67zm503.92 1342.04c263.04,-22.91 199.9,42.3 243.64,57.82 10.93,-20.09 5.02,-44.23 1.62,-67.52 -3.97,-27.2 -7.13,-52.54 -9.89,-77.22 -52.64,-469.41 248.55,-559.94 384.84,-896.44 126.07,-311.27 -122.01,-629.08 -421.34,-585.34 -38.31,5.59 -107.61,26.54 -139.58,10.8 -57.15,-28.13 -20.23,-84.56 4.3,-114.01 -86.58,-4.89 -175.15,55.47 -229.76,88.78 -60.63,37 -124.45,101.46 -175.05,168.67 -257.14,341.61 -10.62,573.92 192.59,929.03 147.36,257.5 200.84,267.01 148.61,485.43z"/>
   </g>
   <g>
    <path id="path4237" class="fil1 str0" d="M7261.84 2889.76c0,0 50.22,3.55 114.83,-2.14 26.17,-2.31 125.51,-12.06 199.79,-28.35 0,0 90.56,-19.38 139.01,-37.24 50.69,-18.68 78.27,-34.54 90.69,-57 -0.55,-4.61 3.83,-20.93 -19.55,-30.74 -59.76,-25.06 -129.08,-20.54 -266.24,-23.44 -152.11,-5.22 -202.7,-30.68 -229.65,-51.18 -25.85,-20.81 -12.85,-78.36 97.89,-129.05 55.78,-27 274.47,-76.81 274.47,-76.81 -73.66,-36.4 -210.98,-100.4 -239.22,-114.22 -24.77,-12.13 -64.38,-30.38 -72.98,-52.45 -9.73,-21.2 23,-39.47 41.29,-44.68 58.9,-16.99 142.03,-27.54 217.69,-28.73 38.04,-0.59 44.21,-3.05 44.21,-3.05 52.48,-8.71 87.03,-44.61 72.62,-101.48 -12.93,-58.03 -81.07,-92.15 -145.83,-80.34 -60.99,11.11 -207.98,53.81 -207.98,53.81 181.68,-1.57 212.1,1.46 225.69,20.44 8.02,11.21 -3.64,26.59 -52.1,34.5 -52.76,8.61 -162.41,18.99 -162.41,18.99 -105.19,6.25 -179.3,6.67 -201.52,53.72 -14.52,30.75 15.47,57.92 28.62,74.94 55.58,61.81 135.85,95.13 187.52,119.68 19.44,9.23 76.48,26.68 76.48,26.68 -167.62,-9.22 -288.54,42.25 -359.47,101.51 -80.23,74.2 -44.74,162.65 119.62,217.11 97.07,32.17 145.22,47.29 290.02,34.25 85.3,-4.6 98.74,-1.86 99.59,5.14 1.2,9.86 -94.73,34.33 -120.93,41.88 -66.62,19.23 -241.29,58.02 -242.16,58.21l0.02 0.02z"/>
    <path id="1" class="fil2" d="M7261.84 2889.76c0,0 50.22,3.55 114.83,-2.14 26.17,-2.31 125.51,-12.06 199.79,-28.35 0,0 90.56,-19.38 139.01,-37.24 50.69,-18.68 78.27,-34.54 90.69,-57 -0.55,-4.61 3.83,-20.93 -19.55,-30.74 -59.76,-25.06 -129.08,-20.54 -266.24,-23.44 -152.11,-5.22 -202.7,-30.68 -229.65,-51.18 -25.85,-20.81 -12.85,-78.36 97.89,-129.05 55.78,-27 274.47,-76.81 274.47,-76.81 -73.66,-36.4 -210.98,-100.4 -239.22,-114.22 -24.77,-12.13 -64.38,-30.38 -72.98,-52.45 -9.73,-21.2 23,-39.47 41.29,-44.68 58.9,-16.99 142.03,-27.54 217.69,-28.73 38.04,-0.59 44.21,-3.05 44.21,-3.05 52.48,-8.71 87.03,-44.61 72.62,-101.48 -12.93,-58.03 -81.07,-92.15 -145.83,-80.34 -60.99,11.11 -207.98,53.81 -207.98,53.81 181.68,-1.57 212.1,1.46 225.69,20.44 8.02,11.21 -3.64,26.59 -52.1,34.5 -52.76,8.61 -162.41,18.99 -162.41,18.99 -105.19,6.25 -179.3,6.67 -201.52,53.72 -14.52,30.75 15.47,57.92 28.62,74.94 55.58,61.81 135.85,95.13 187.52,119.68 19.44,9.23 76.48,26.68 76.48,26.68 -167.62,-9.22 -288.54,42.25 -359.47,101.51 -80.23,74.2 -44.74,162.65 119.62,217.11 97.07,32.17 145.22,47.29 290.02,34.25 85.3,-4.6 98.74,-1.86 99.59,5.14 1.2,9.86 -94.73,34.33 -120.93,41.88 -66.62,19.23 -241.29,58.02 -242.16,58.21l0.02 0.02z"/>
   </g>
   <g>
    <g>
     <path class="fil3 str0" d="M2805.74 4572.9c0,691.66 -343.99,1037.49 -1031.97,1037.49l-1037.48 0 0 97.18c0,149.07 145.65,167.17 269.41,167.17l4410.57 0c-98.17,220.82 -87.57,482.52 30.13,689.82l-4362.44 0c-691.42,0 -1037.49,-163.49 -1037.49,-851.47l0 -1134.68c0,-691.65 344,-1037.47 1031.98,-1037.47l689.81 0c691.67,0 1037.49,343.98 1037.49,1031.96zm-689.83 0l0 5.51c0,-150.83 -36.78,-252 -110.36,-303.5 -33.11,-29.44 -110.37,-44.16 -231.78,-44.16l-689.82 0c-125.08,0 -204.18,12.88 -237.3,38.64 -73.58,55.18 -110.36,156.35 -110.36,303.51l0 347.66 1031.96 0c125.08,0 204.19,-12.86 237.3,-38.62 73.58,-55.18 110.36,-158.2 110.36,-309.04z"/>
     <path id="1" class="fil4" d="M2805.74 4572.9c0,691.66 -343.99,1037.49 -1031.97,1037.49l-1037.48 0 0 97.18c0,149.07 145.65,167.17 269.41,167.17l4410.57 0c-98.17,220.82 -87.57,482.52 30.13,689.82l-4362.44 0c-691.42,0 -1037.49,-163.49 -1037.49,-851.47l0 -1134.68c0,-691.65 344,-1037.47 1031.98,-1037.47l689.81 0c691.67,0 1037.49,343.98 1037.49,1031.96zm-689.83 0l0 5.51c0,-150.83 -36.78,-252 -110.36,-303.5 -33.11,-29.44 -110.37,-44.16 -231.78,-44.16l-689.82 0c-125.08,0 -204.18,12.88 -237.3,38.64 -73.58,55.18 -110.36,156.35 -110.36,303.51l0 347.66 1031.96 0c125.08,0 204.19,-12.86 237.3,-38.62 73.58,-55.18 110.36,-158.2 110.36,-309.04z"/>
    </g>
    <g>
     <path class="fil3 str0" d="M5776.2 5610.39l-689.82 0 0 -1031.98c0,-125.08 -12.87,-204.18 -38.63,-237.29 -55.18,-73.58 -156.35,-110.37 -303.52,-110.37l-1037.48 0 0 1379.64 -689.83 0 0 -2069.45 1721.79 0c691.67,0 1037.49,343.98 1037.49,1031.96l0 1037.49z"/>
     <path id="1" class="fil4" d="M5776.2 5610.39l-689.82 0 0 -1031.98c0,-125.08 -12.87,-204.18 -38.63,-237.29 -55.18,-73.58 -156.35,-110.37 -303.52,-110.37l-1037.48 0 0 1379.64 -689.83 0 0 -2069.45 1721.79 0c691.67,0 1037.49,343.98 1037.49,1031.96l0 1037.49z"/>
    </g>
    <g>
     <path class="fil3 str0" d="M13758.16 5610.39l-689.83 0 0 -1031.98c0,-150.83 -36.78,-252 -110.36,-303.5 -33.11,-29.44 -110.37,-44.16 -231.79,-44.16l-1037.47 0 0 1379.64 -689.83 0 0 -3101.43c0,-691.65 345.83,-1037.49 1037.49,-1037.49l0 689.83c-125.08,0 -204.18,12.88 -237.3,38.62 -73.58,55.2 -110.36,156.37 -110.36,303.53l0 1037.49 1031.96 0c691.67,0 1037.49,343.98 1037.49,1031.96l0 1037.49z"/>
     <path id="1" class="fil4" d="M13758.16 5610.39l-689.83 0 0 -1031.98c0,-150.83 -36.78,-252 -110.36,-303.5 -33.11,-29.44 -110.37,-44.16 -231.79,-44.16l-1037.47 0 0 1379.64 -689.83 0 0 -3101.43c0,-691.65 345.83,-1037.49 1037.49,-1037.49l0 689.83c-125.08,0 -204.18,12.88 -237.3,38.62 -73.58,55.2 -110.36,156.37 -110.36,303.53l0 1037.49 1031.96 0c691.67,0 1037.49,343.98 1037.49,1031.96l0 1037.49z"/>
    </g>
    <g>
     <path class="fil3 str0" d="M13072.54 6989.93l572.52 0c691.61,0 1037.49,-344 1037.49,-1031.98l0 -1721.07 669.61 0 0 -695.36 -669.61 0 0 -2079.55 -689.83 0c0,1287.59 0,2555.28 0,4490.46 0,150.79 -36.78,252.02 -110.36,303.53 -33.12,29.43 -110.39,44.14 -231.79,44.14l-578.03 0 0 689.83z"/>
     <path id="1" class="fil4" d="M13072.54 6989.93l572.52 0c691.61,0 1037.49,-344 1037.49,-1031.98l0 -1721.07 669.61 0 0 -695.36 -669.61 0 0 -2079.55 -689.83 0c0,1287.59 0,2555.28 0,4490.46 0,150.79 -36.78,252.02 -110.36,303.53 -33.12,29.43 -110.39,44.14 -231.79,44.14l-578.03 0 0 689.83z"/>
    </g>
    <g>
     <polygon class="fil3 str0" points="7825.05,3921.02 7824.92,5610.39 7135.11,5610.39 7135.28,3921.02 "/>
     <polygon id="1" class="fil4" points="7825.05,3921.02 7824.92,5610.39 7135.11,5610.39 7135.28,3921.02 "/>
    </g>
    <g>
     <path class="fil3 str0" d="M7833.94 6989.9l-752.59 0c-691.51,0 -1037.5,-343.99 -1037.5,-1031.98l0 -4500.17 689.83 0c0,1686.82 0,2522.12 0,4494.66 0,125.04 13.34,203.96 38.63,237.3 55.49,73.2 156.36,110.36 303.52,110.36l758.11 0 0 689.83z"/>
     <path id="1" class="fil4" d="M7833.94 6989.9l-752.59 0c-691.51,0 -1037.5,-343.99 -1037.5,-1031.98l0 -4500.17 689.83 0c0,1686.82 0,2522.12 0,4494.66 0,125.04 13.34,203.96 38.63,237.3 55.49,73.2 156.36,110.36 303.52,110.36l758.11 0 0 689.83z"/>
    </g>
    <g>
     <path class="fil3 str0" d="M8697 6989.9l-49.88 0 0 -689.83 156.01 0 0 0.13 925.84 0c125.09,0 204.2,-12.88 237.31,-38.62 73.58,-55.2 110.36,-156.37 110.36,-303.53l0 -347.66 -1031.96 0c-691.67,0 -1037.49,-344 -1037.49,-1031.98 0,-346.33 86.27,-605.98 258.79,-778.88 6.31,-4.39 11.58,-9.64 15.89,-15.46 171.82,-162.08 424.26,-243.13 757.29,-243.13l1727.3 0 0 2411.6c0,691.55 -344.09,1037.49 -1031.97,1037.49l-1037.48 0 0 -0.13zm1379.63 -2069.34l0 -689.82 -1031.96 0c-125.09,0 -204.18,12.88 -237.31,38.64 -73.58,55.18 -110.36,156.35 -110.36,303.51 0,150.84 36.78,252.01 110.36,303.52 33.13,29.43 110.38,44.14 231.79,44.14l1037.48 0z"/>
     <path id="1" class="fil4" d="M8697 6989.9l-49.88 0 0 -689.83 156.01 0 0 0.13 925.84 0c125.09,0 204.2,-12.88 237.31,-38.62 73.58,-55.2 110.36,-156.37 110.36,-303.53l0 -347.66 -1031.96 0c-691.67,0 -1037.49,-344 -1037.49,-1031.98 0,-346.33 86.27,-605.98 258.79,-778.88 6.31,-4.39 11.58,-9.64 15.89,-15.46 171.82,-162.08 424.26,-243.13 757.29,-243.13l1727.3 0 0 2411.6c0,691.55 -344.09,1037.49 -1031.97,1037.49l-1037.48 0 0 -0.13zm1379.63 -2069.34l0 -689.82 -1031.96 0c-125.09,0 -204.18,12.88 -237.31,38.64 -73.58,55.18 -110.36,156.35 -110.36,303.51 0,150.84 36.78,252.01 110.36,303.52 33.13,29.43 110.38,44.14 231.79,44.14l1037.48 0z"/>
    </g>
   </g>
  </g>
 </g>
</svg>
